<?xml version="1.0" standalone="no"?>
<!DOCTYPE svg PUBLIC "-//W3C//DTD SVG 20010904//EN"
 "http://www.w3.org/TR/2001/REC-SVG-20010904/DTD/svg10.dtd">
<svg version="1.0" xmlns="http://www.w3.org/2000/svg"
 width="672.000000pt" height="672.000000pt" viewBox="0 0 672.000000 672.000000"
 preserveAspectRatio="xMidYMid meet">
<metadata>
Created by potrace 1.11, written by Peter Selinger 2001-2013
</metadata>
<g transform="translate(0.000000,672.000000) scale(0.100000,-0.100000)"
fill="#000000" stroke="none">
<path d="M3148 6715 c-1 -2 -37 -6 -78 -9 -41 -3 -95 -9 -120 -13 -25 -3 -60
-7 -77 -7 -18 -1 -33 -5 -33 -9 0 -5 -3 -6 -8 -3 -4 2 -27 0 -52 -5 -25 -5
-56 -11 -70 -14 -39 -7 -70 -14 -88 -19 -9 -3 -28 -8 -42 -10 -51 -11 -136
-34 -162 -45 -16 -6 -28 -8 -28 -5 0 4 -6 2 -12 -4 -7 -6 -15 -10 -18 -10 -3
1 -36 -9 -75 -22 -38 -14 -72 -25 -75 -25 -3 -1 -14 -5 -25 -10 -11 -4 -58
-24 -105 -43 -229 -93 -508 -253 -700 -401 -167 -129 -400 -348 -497 -467 -18
-21 -46 -55 -63 -75 -36 -43 -53 -67 -144 -202 -100 -146 -116 -172 -116 -184
0 -6 -7 -16 -15 -23 -8 -7 -13 -16 -10 -20 3 -5 1 -10 -4 -12 -22 -8 -157
-311 -219 -493 -51 -148 -114 -420 -126 -540 -2 -22 -8 -71 -13 -110 -9 -82
-10 -463 0 -550 3 -33 9 -85 12 -115 3 -30 8 -66 11 -80 3 -14 8 -36 10 -50 2
-14 9 -45 14 -70 5 -25 12 -58 15 -75 2 -16 11 -52 19 -80 53 -178 69 -231 75
-240 3 -5 6 -14 7 -20 5 -26 72 -183 129 -300 68 -141 192 -353 235 -402 5 -7
21 -28 34 -47 26 -39 116 -153 161 -205 40 -46 259 -267 310 -312 l40 -35 -1
-677 -1 -677 25 16 c13 9 52 32 86 52 33 19 63 38 66 41 3 4 26 18 52 31 27
14 48 28 48 32 0 5 4 8 9 8 5 0 65 34 133 76 67 42 137 84 153 94 17 10 91 55
165 100 324 199 443 270 454 270 7 0 36 -7 66 -16 29 -9 62 -18 72 -20 10 -2
28 -6 41 -9 12 -3 36 -8 52 -10 17 -3 37 -8 45 -10 8 -2 31 -7 50 -10 19 -3
42 -8 50 -10 8 -2 40 -7 70 -10 30 -3 62 -8 70 -10 93 -26 696 -26 829 0 10 2
42 6 71 10 51 7 67 9 120 20 14 2 39 7 55 10 25 4 208 49 240 59 6 1 30 8 55
15 201 55 526 197 725 316 28 17 55 32 60 35 23 12 100 66 103 73 2 4 8 7 14
7 8 0 73 44 88 60 3 3 17 13 32 23 57 36 217 176 328 287 152 151 190 195 299
342 50 67 95 128 100 133 23 30 150 252 188 330 55 111 128 287 158 380 32 97
55 176 60 200 2 11 4 20 5 20 1 0 3 7 5 15 1 8 10 49 19 90 9 41 18 86 20 100
3 14 5 25 6 25 1 0 3 14 5 30 1 17 6 50 10 75 4 25 8 73 10 107 2 34 5 66 8
70 7 11 1 437 -7 493 -3 25 -8 68 -11 95 -8 73 -17 129 -28 175 -9 41 -37 163
-42 185 -3 17 -37 130 -65 215 -11 36 -50 142 -60 165 -39 90 -147 307 -180
361 -22 36 -40 68 -40 69 0 11 -128 195 -195 280 -100 129 -97 125 -250 279
-132 133 -178 174 -295 266 -36 27 -75 59 -88 70 -12 10 -25 19 -28 19 -2 0
-39 24 -82 53 -92 63 -131 86 -154 94 -10 4 -18 9 -18 13 0 3 -15 12 -32 20
-18 8 -40 20 -50 28 -9 8 -22 15 -30 17 -7 1 -20 6 -28 11 -15 10 -111 57
-120 60 -3 0 -30 12 -60 26 -123 57 -373 144 -495 173 -139 32 -250 55 -295
61 -30 4 -58 9 -61 10 -3 2 -37 7 -75 10 -38 4 -82 9 -99 12 -35 5 -521 13
-527 8z"/>
</g>
</svg>
